<svg xmlns="http://www.w3.org/2000/svg" viewBox="0 0 1200 760" role="img" aria-labelledby="title desc">
  <title id="title">Florida hurricane guide illustration</title>
  <desc id="desc">A stylized coastal preparedness illustration in the hurricanesupplylist.com visual style.</desc>
  <defs>
    <linearGradient id="sea" x1="0" y1="0" x2="1" y2="1">
      <stop offset="0%" stop-color="#c1c5bc"/>
      <stop offset="100%" stop-color="#8aa2a8"/>
    </linearGradient>
  </defs>
  <rect width="1200" height="760" rx="56" fill="#f2ecdf"/>
  <rect width="1200" height="760" rx="56" fill="#e2d9cd" opacity="0.28"/>
  <circle cx="980" cy="122" r="152" fill="#f0c582" opacity="0.58"/>
  <g fill="none" stroke="#bdb5aa" stroke-width="3" opacity="0.58">
    <path d="M-40 102c153 18 265 31 398 27 144-4 234-28 371-30 156-2 271 18 511 44"/>
    <path d="M-58 156c168 16 280 22 429 9 155-13 238-44 382-50 137-6 246 8 487 33"/>
    <path d="M-34 212c144 10 265 8 404-15 146-24 243-59 391-67 135-7 223 2 479 30"/>
    <path d="M-60 270c162 1 273-8 425-36 154-28 243-62 393-76 127-11 226-4 482 21"/>
  </g>
  <path d="M0 320c144-25 278-16 412-35 166-24 230-67 389-77 120-8 249 12 399 57v156H0Z" fill="#d7cec2"/>
  <path d="M0 418c179-30 298-14 470 8 147 19 249 15 400-6 113-15 218-15 330 7v170H0Z" fill="url(#sea)"/>
  <path d="M0 520c163-58 292-62 451-39 125 18 210 8 329-26 174-49 270-37 420 26v279H0Z" fill="#4c5552"/>
  <path d="M0 598c145-33 271-27 399-5 169 29 288 8 444-36 138-39 250-39 357 0v203H0Z" fill="#2f3638" opacity="0.42"/>
  <path d="M0 520c119-44 235-68 329-72 99-3 189 14 289 22 102 8 201-5 318-44 115-39 196-53 264-51v59c-110 24-210 47-322 71-162 35-316 48-483 33-173-15-280-12-395 14Z" fill="#96abb0" opacity="0.86"/>
  <g transform="translate(672 212)">
    <path d="M94 12c68 16 126 26 178 28l18 28-40 18 10 42-64 28-20 42 26 40-16 40 48 36-14 40-52-8-34-42-40-18 6-36-42-24 24-38-18-36 34-34-26-34 26-28-4-30Z" fill="#6e553c"/>
    <rect x="344" y="162" width="16" height="168" fill="#f6efe5"/>
    <path d="M304 188c48-30 92-42 138-40-36 48-82 86-138 116Z" fill="#c2742b"/>
    <path d="M34 322c78-48 146-62 230-38 40 12 82 35 124 74H0c6-8 16-20 34-36Z" fill="#47514f"/>
  </g>
</svg>
