<svg xmlns="http://www.w3.org/2000/svg" viewBox="0 0 1200 760" role="img" aria-labelledby="title desc">
  <title id="title">Pet kit illustration</title>
  <desc id="desc">A stylized coastal preparedness illustration in the hurricanesupplylist.com visual style.</desc>
  <defs>
    <linearGradient id="sea" x1="0" y1="0" x2="1" y2="1">
      <stop offset="0%" stop-color="#c2c5bb"/>
      <stop offset="100%" stop-color="#8aa2a8"/>
    </linearGradient>
  </defs>
  <rect width="1200" height="760" rx="56" fill="#f2ecdf"/>
  <rect width="1200" height="760" rx="56" fill="#e2d9cd" opacity="0.28"/>
  <circle cx="980" cy="122" r="152" fill="#f1c88a" opacity="0.58"/>
  <g fill="none" stroke="#bdb5aa" stroke-width="3" opacity="0.58">
    <path d="M-40 102c153 18 265 31 398 27 144-4 234-28 371-30 156-2 271 18 511 44"/>
    <path d="M-58 156c168 16 280 22 429 9 155-13 238-44 382-50 137-6 246 8 487 33"/>
    <path d="M-34 212c144 10 265 8 404-15 146-24 243-59 391-67 135-7 223 2 479 30"/>
    <path d="M-60 270c162 1 273-8 425-36 154-28 243-62 393-76 127-11 226-4 482 21"/>
  </g>
  <path d="M0 320c144-25 278-16 412-35 166-24 230-67 389-77 120-8 249 12 399 57v156H0Z" fill="#d8d0c4"/>
  <path d="M0 418c179-30 298-14 470 8 147 19 249 15 400-6 113-15 218-15 330 7v170H0Z" fill="url(#sea)"/>
  <path d="M0 520c163-58 292-62 451-39 125 18 210 8 329-26 174-49 270-37 420 26v279H0Z" fill="#4a5351"/>
  <path d="M0 598c145-33 271-27 399-5 169 29 288 8 444-36 138-39 250-39 357 0v203H0Z" fill="#2f3638" opacity="0.42"/>
  <path d="M0 520c119-44 235-68 329-72 99-3 189 14 289 22 102 8 201-5 318-44 115-39 196-53 264-51v59c-110 24-210 47-322 71-162 35-316 48-483 33-173-15-280-12-395 14Z" fill="#95aaaf" opacity="0.86"/>
  <g transform="translate(676 248)">
    <rect x="28" y="116" width="270" height="172" rx="36" fill="#6e553c"/>
    <rect x="74" y="148" width="178" height="88" rx="22" fill="#f2ecdf"/>
    <path d="M116 164h92" stroke="#7ca1ab" stroke-width="16" stroke-linecap="round"/>
    <path d="M116 198h118" stroke="#7ca1ab" stroke-width="16" stroke-linecap="round"/>
    <circle cx="382" cy="138" r="32" fill="#c2742b"/>
    <circle cx="448" cy="138" r="32" fill="#c2742b"/>
    <circle cx="350" cy="206" r="30" fill="#c2742b"/>
    <circle cx="412" cy="238" r="34" fill="#c2742b"/>
    <circle cx="470" cy="206" r="30" fill="#c2742b"/>
    <ellipse cx="164" cy="318" rx="104" ry="22" fill="#2f3638" opacity="0.28"/>
  </g>
</svg>
