<svg xmlns="http://www.w3.org/2000/svg" viewBox="0 0 192 192" aria-hidden="true">
  <rect width="192" height="192" fill="#FFF9EE"/>
  <g fill="none" stroke="#1649B8" stroke-width="10">
    <path d="M12 12h72v72H12zM108 12h72v72h-72zM12 108h72v72H12zM108 108h72v72h-72z"/>
    <path d="M48 24c0 20-10 30-24 36 14 6 24 16 24 36 0-20 10-30 24-36-14-6-24-16-24-36Zm96 0c0 20-10 30-24 36 14 6 24 16 24 36 0-20 10-30 24-36-14-6-24-16-24-36ZM48 120c0 20-10 30-24 36 14 6 24 16 24 36 0-20 10-30 24-36-14-6-24-16-24-36Zm96 0c0 20-10 30-24 36 14 6 24 16 24 36 0-20 10-30 24-36-14-6-24-16-24-36Z" stroke="#11B7B3"/>
  </g>
</svg>
